<svg width="20" height="7" viewBox="0 0 20 7" fill="none" xmlns="http://www.w3.org/2000/svg">
<path d="M3.35449 4.26074L1.62598 7H0.102539L2.48535 3.38184L0.302734 0.120117H1.82617L3.35449 2.55176L4.88281 0.120117H6.39648L4.30664 3.38184L6.59668 7H5.08301L3.35449 4.26074ZM11.9629 1.70215L8.98926 7H7.34863V0.120117H8.62793V4.11914C8.62793 4.29167 8.62467 4.49023 8.61816 4.71484C8.61165 4.93945 8.60189 5.18848 8.58887 5.46191L11.582 0.120117H13.2031V7H11.9238V2.94238C11.9238 2.81543 11.9271 2.64941 11.9336 2.44434C11.9401 2.236 11.9499 1.98861 11.9629 1.70215ZM17.6465 1.2334V7H16.2061V1.2334H13.9844V0.120117H19.873V1.2334H17.6465Z" fill="#F26C21"/>
</svg>
