<svg width="24" height="25" viewBox="0 0 24 25" fill="none" xmlns="http://www.w3.org/2000/svg">
<circle cx="12" cy="12.5" r="12" fill="#9DCB3B"/>
<path d="M6.05078 15.5L3.65234 11.2617C3.69922 11.6732 3.72266 12.0039 3.72266 12.2539V15.5H2.69922V9.99609H4.01562L6.44922 14.2695C6.40234 13.8763 6.37891 13.5182 6.37891 13.1953V9.99609H7.40234V15.5H6.05078ZM8.48047 15.5V9.99609H12.8086V10.8867H9.63281V12.2695H12.5703V13.1602H9.63281V14.6094H12.9688V15.5H8.48047ZM19.4023 15.5H18.0352L17.2891 12.3164C17.1979 11.9414 17.1211 11.5495 17.0586 11.1406C16.9961 11.4818 16.9453 11.7422 16.9062 11.9219C16.8672 12.099 16.5898 13.2917 16.0742 15.5H14.707L13.2891 9.99609H14.457L15.2539 13.5508L15.4336 14.4102C15.5065 14.0482 15.5768 13.7031 15.6445 13.375C15.7148 13.0443 15.9753 11.918 16.4258 9.99609H17.7148L18.4102 12.9258C18.4648 13.1445 18.5573 13.6393 18.6875 14.4102L18.7852 13.957L18.9922 13.0586L19.6562 9.99609H20.8242L19.4023 15.5Z" fill="white"/>
</svg>
