<svg width="23" height="7" viewBox="0 0 23 7" fill="none" xmlns="http://www.w3.org/2000/svg">
<path d="M1.27832 2.94238V7H-0.000976562V0.120117H1.64453L4.68652 5.46191C4.62793 4.96712 4.59863 4.51953 4.59863 4.11914V0.120117H5.87793V7H4.18848L1.19043 1.70215C1.21973 1.95931 1.24089 2.19206 1.25391 2.40039C1.27018 2.60547 1.27832 2.78613 1.27832 2.94238ZM12.8359 5.88672V7H7.22559V0.120117H12.6357V1.2334H8.66602V2.96191H12.3379V4.0752H8.66602V5.88672H12.8359ZM17.665 2.92773L16.7178 7H15.0088L13.2363 0.120117H14.6963L15.6533 4.33398C15.6956 4.51302 15.7412 4.71973 15.79 4.9541C15.8421 5.18848 15.8844 5.41634 15.917 5.6377C15.9495 5.4847 15.9788 5.33659 16.0049 5.19336C16.0342 5.04688 16.0635 4.90365 16.0928 4.76367C16.1221 4.62044 16.153 4.47884 16.1855 4.33887L17.1572 0.120117H18.7686L19.7305 4.1875C19.763 4.32422 19.8021 4.52279 19.8477 4.7832C19.8965 5.04362 19.9421 5.32845 19.9844 5.6377C20.0267 5.44889 20.0641 5.28288 20.0967 5.13965C20.1325 4.99316 20.1667 4.84831 20.1992 4.70508C20.235 4.55859 20.2725 4.39258 20.3115 4.20703L21.1953 0.120117H22.6553L20.8779 7H19.1689L18.2363 3.02051C18.181 2.78613 18.1289 2.54688 18.0801 2.30273C18.0312 2.05859 17.9873 1.80794 17.9482 1.55078C17.9222 1.69076 17.8896 1.85514 17.8506 2.04395C17.8115 2.23275 17.7741 2.40853 17.7383 2.57129C17.7057 2.73405 17.6813 2.85286 17.665 2.92773Z" fill="#9DCB3B"/>
</svg>
